# xmcd
#
# Track frame offsets: 
#        150
#        24354
#        54974
#        76119
#        101694
#        128784
#        151611
#        173559
#        196266
#        226949
#        254616
#        278191
#        300844
#
# Disc length: 4341 seconds
#
# Revision: 0
# Processed by: cddbd v1.5.2PL0 Copyright (c) Steve Scherf et al.
# Submitted via: ExactAudioCopy v0.99pb4
#
DISCID=8f10f30d
DTITLE=Keni Stevens - Blue Moods
DYEAR=1987
DGENRE=R&B
TTITLE0=Blue Moods
TTITLE1=Spend The Night
TTITLE2=Shine
TTITLE3=Night Moves
TTITLE4=Passionate
TTITLE5=Too Much Too Soon
TTITLE6=Cannot Live Without Your Love
TTITLE7=All Day All Night
TTITLE8=Spend The Night (Food Of Love)
TTITLE9=Passionate (Young And In Dub)
TTITLE10=Blue Moods (Black Magic)
TTITLE11=Cannot Live Without Your Love (Short And Suite)
TTITLE12=Night Moves (A Dark Secret)
EXTD=
EXTT0=
EXTT1=
EXTT2=
EXTT3=
EXTT4=
EXTT5=
EXTT6=
EXTT7=
EXTT8=
EXTT9=
EXTT10=
EXTT11=
EXTT12=
PLAYORDER=
